<svg width="25" height="21" viewBox="0 0 25 21" fill="none" xmlns="http://www.w3.org/2000/svg">
<path d="M24.3869 12.2935L21.1541 18.62H21.1064V20.9997H3.27927V18.6198H3.23278L0 12.2935L3.23278 12.9167L3.36329 12.8869C3.27691 13.0933 3.23251 13.3156 3.23278 13.5402C3.23278 14.4765 3.99106 15.2394 4.92767 15.2394C5.86428 15.2394 6.62256 14.4765 6.62256 13.5402C6.62256 12.9942 6.36516 12.5054 5.96468 12.1952L7.0619 10.5173L8.68401 11.4871C8.59618 11.765 8.57103 12.0916 8.62495 12.4282C8.76555 13.3033 9.38704 13.9328 10.0135 13.8357C10.6399 13.736 11.0341 12.9468 10.8935 12.0692C10.8483 11.7825 10.7504 11.5232 10.6172 11.3051L10.6712 11.2964L9.91783 9.9252L12.1776 8.14256L12.194 8.12891L12.2091 8.14256L14.4688 9.9252L13.7155 11.2964L13.7694 11.3051C13.6288 11.5386 13.5349 11.7983 13.4932 12.0692C13.3526 12.9468 13.7468 13.7358 14.3732 13.8357C14.9996 13.933 15.6211 13.3035 15.7617 12.4282C15.8156 12.0916 15.7907 11.765 15.7027 11.4871L17.3248 10.5173L18.422 12.1952C18.0215 12.5056 17.7641 12.9942 17.7641 13.5402C17.7641 14.4765 18.5224 15.2394 19.459 15.2394C20.3956 15.2394 21.1539 14.4765 21.1539 13.5402C21.1539 13.3083 21.1074 13.0878 21.0234 12.8869L21.1539 12.9167L24.3869 12.2935Z" fill="#FCFCFC"/>
<circle cx="4.0644" cy="8.80649" r="1.35483" fill="#FCFCFC"/>
<circle cx="20.3225" cy="8.80649" r="1.35483" fill="#FCFCFC"/>
<path d="M12.0045 0.479351C12.0722 0.3078 12.315 0.307799 12.3826 0.479351L13.1192 2.34695C13.1399 2.39933 13.1813 2.44078 13.2337 2.46144L15.1013 3.19801C15.2728 3.26567 15.2728 3.50846 15.1013 3.57612L13.2337 4.31269C13.1813 4.33334 13.1399 4.3748 13.1192 4.42718L12.3826 6.29478C12.315 6.46633 12.0722 6.46633 12.0045 6.29478L11.268 4.42718C11.2473 4.3748 11.2058 4.33334 11.1535 4.31269L9.28586 3.57612C9.11431 3.50846 9.11431 3.26567 9.28587 3.19801L11.1535 2.46144C11.2058 2.44078 11.2473 2.39933 11.268 2.34695L12.0045 0.479351Z" fill="#FCFCFC"/>
</svg>
