<svg width="24" height="24" viewBox="0 0 24 24" fill="none" xmlns="http://www.w3.org/2000/svg">
<path fill-rule="evenodd" clip-rule="evenodd" d="M10.4993 1C9.14387 1.00012 7.80814 1.32436 6.60353 1.94569C5.39893 2.56702 4.36037 3.46742 3.57451 4.57175C2.78866 5.67609 2.27829 6.95235 2.08599 8.29404C1.89368 9.63574 2.02503 11.004 2.46906 12.2846C2.91308 13.5652 3.65692 14.7211 4.63851 15.6557C5.6201 16.5904 6.81098 17.2768 8.11179 17.6576C9.4126 18.0384 10.7856 18.1026 12.1163 17.8449C13.447 17.5872 14.6967 17.015 15.7613 16.176L19.4133 19.828C19.6019 20.0102 19.8545 20.111 20.1167 20.1087C20.3789 20.1064 20.6297 20.0012 20.8151 19.8158C21.0005 19.6304 21.1057 19.3796 21.108 19.1174C21.1102 18.8552 21.0094 18.6026 20.8273 18.414L17.1753 14.762C18.1633 13.5086 18.7784 12.0024 18.9504 10.4157C19.1223 8.82905 18.8441 7.22602 18.1475 5.79009C17.4509 4.35417 16.3642 3.14336 15.0116 2.29623C13.659 1.44911 12.0952 0.999893 10.4993 1ZM3.99928 9.5C3.99928 7.77609 4.6841 6.12279 5.90308 4.90381C7.12207 3.68482 8.77537 3 10.4993 3C12.2232 3 13.8765 3.68482 15.0955 4.90381C16.3145 6.12279 16.9993 7.77609 16.9993 9.5C16.9993 11.2239 16.3145 12.8772 15.0955 14.0962C13.8765 15.3152 12.2232 16 10.4993 16C8.77537 16 7.12207 15.3152 5.90308 14.0962C4.6841 12.8772 3.99928 11.2239 3.99928 9.5Z" fill="#D6D4CB"/>
</svg>
